<svg width="12" height="12" viewBox="0 0 12 12" fill="none" xmlns="http://www.w3.org/2000/svg">
<path d="M9.14986 2.85498C9.05645 2.76135 8.92962 2.70874 8.79736 2.70874C8.6651 2.70874 8.53828 2.76135 8.44486 2.85498L5.99986 5.29498L3.55486 2.84998C3.46145 2.75635 3.33462 2.70374 3.20236 2.70374C3.0701 2.70374 2.94328 2.75635 2.84986 2.84998C2.65486 3.04498 2.65486 3.35998 2.84986 3.55498L5.29486 5.99998L2.84986 8.44498C2.65486 8.63998 2.65486 8.95498 2.84986 9.14998C3.04486 9.34498 3.35986 9.34498 3.55486 9.14998L5.99986 6.70498L8.44486 9.14998C8.63986 9.34498 8.95486 9.34498 9.14986 9.14998C9.34486 8.95498 9.34486 8.63998 9.14986 8.44498L6.70486 5.99998L9.14986 3.55498C9.33986 3.36498 9.33986 3.04498 9.14986 2.85498Z" fill="white"/>
</svg>
