<svg width="41" height="40" viewBox="0 0 41 40" fill="none" xmlns="http://www.w3.org/2000/svg">
<g id="add_a_photo_24px">
<path id="icon/image/add_a_photo_24px" opacity="0.7" fill-rule="evenodd" clip-rule="evenodd" d="M7.68734 15.8333C6.74775 15.8333 5.979 15.0833 5.979 14.1667V10.8333H2.56234C1.62275 10.8333 0.854004 10.0833 0.854004 9.16667C0.854004 8.25 1.62275 7.5 2.56234 7.5H5.979V4.16667C5.979 3.25 6.74775 2.5 7.68734 2.5C8.62692 2.5 9.39567 3.25 9.39567 4.16667V7.5H12.8123C13.7519 7.5 14.5207 8.25 14.5207 9.16667C14.5207 10.0833 13.7519 10.8333 12.8123 10.8333H9.39567V14.1667C9.39567 15.0833 8.62692 15.8333 7.68734 15.8333ZM18.624 21.6666C19.5395 20.1196 21.2314 19.1666 23.0624 19.1666C24.8934 19.1666 26.5853 20.1196 27.5008 21.6666C28.4163 23.2136 28.4163 25.1196 27.5008 26.6666C26.5853 28.2136 24.8934 29.1666 23.0624 29.1666C21.2314 29.1666 19.5395 28.2136 18.624 26.6666C17.7085 25.1196 17.7085 23.2136 18.624 21.6666ZM36.729 10.8333H31.3136L29.1953 8.58333C28.5632 7.9 27.6407 7.5 26.684 7.5H15.7507C16.0411 8 16.229 8.55 16.229 9.16667C16.229 11 14.6915 12.5 12.8123 12.5H11.104V14.1667C11.104 16 9.5665 17.5 7.68734 17.5C7.05525 17.5 6.4915 17.3167 5.979 17.0333V34.1667C5.979 36 7.5165 37.5 9.39567 37.5H36.729C38.6082 37.5 40.1457 36 40.1457 34.1667V14.1667C40.1457 12.3333 38.6082 10.8333 36.729 10.8333ZM14.5206 24.1667C14.5206 28.7667 18.3473 32.5 23.0623 32.5C27.7773 32.5 31.6039 28.7667 31.6039 24.1667C31.6039 19.5667 27.7773 15.8334 23.0623 15.8334C18.3473 15.8334 14.5206 19.5667 14.5206 24.1667Z" fill="white"/>
</g>
</svg>
